<svg aria-hidden="true" style="position: absolute; width: 0; height: 0; overflow: hidden;" version="1.1" xmlns="http://www.w3.org/2000/svg" xmlns:xlink="http://www.w3.org/1999/xlink">
    <defs>
        <symbol id="icon-Add-To-Cart" viewBox="0 0 32 32">
            <path fill="#f9c2d2" style="fill: var(--color1, #f9c2d2)" d="M26.377 27.25h-17.817c-1.55 0-2.811-1.262-2.811-2.811 0-1.554 1.262-2.814 2.811-2.814h2.811l-1.689 1.874h-1.12c-0.518 0-0.937 0.42-0.937 0.937s0.42 0.937 0.937 0.937v0h17.81v1.874z"></path>
            <path fill="#f98aab" style="fill: var(--color2, #f98aab)" d="M17.938 25.376h8.437v1.874h-8.437v-1.874z"></path>
            <path fill="#f98aab" style="fill: var(--color2, #f98aab)" opacity="0.5" d="M6.773 10.377l-0.837-3.753h-5.936v-1.874h7.44l1.623 7.273-2.29-1.646z"></path>
            <path fill="#f9c2d2" style="fill: var(--color1, #f9c2d2)" d="M21.966 10.697l-0.281-0.32h-14.907l2.91 13.122h16.48l3.303-12.786c-0.64 0.16-4.439 3.506-7.504-0.016zM26.683 14.007l-0.519 1.993h-4.393l0.238-2.859c1.376 0.837 3.063 1.17 4.674 0.866zM15.991 16l-0.313-3.749h4.526l-0.313 3.749h-3.902zM19.735 17.874l-0.313 3.749h-2.965l-0.313-3.749h3.589zM13.797 12.251l0.313 3.749h-4.167l-0.83-3.749h4.681zM10.361 17.874h3.904l0.313 3.749h-3.385l-0.832-3.749zM21.303 21.623l0.311-3.749h4.069l-0.969 3.749h-3.41z"></path>
            <path fill="#f98aab" style="fill: var(--color2, #f98aab)" d="M21.963 10.697l-0.281-0.32h-3.744v1.874h2.263l-0.315 3.749h-1.95v1.874h1.794l-0.313 3.749h-1.481v1.877h8.226l3.303-12.786c-0.64 0.16-4.439 3.506-7.504-0.016zM24.711 21.623h-3.408l0.311-3.749h4.069l-0.969 3.749zM26.679 14.007l-0.514 1.993h-4.395l0.238-2.859c1.374 0.837 3.063 1.17 4.672 0.866z"></path>
            <path fill="#665151" style="fill: var(--color3, #665151)" d="M12.313 31.001c-1.485-0.087-2.656-1.313-2.656-2.811s1.171-2.724 2.648-2.811l0.008-0c1.55-0.002 2.811 1.257 2.811 2.809 0 1.55-1.262 2.811-2.811 2.811z"></path>
            <path fill="#4d3535" style="fill: var(--color4, #4d3535)" d="M21.687 31.001c-1.485-0.087-2.656-1.313-2.656-2.811s1.171-2.724 2.648-2.811l0.008-0c1.552-0.002 2.811 1.257 2.811 2.809 0 1.55-1.259 2.811-2.811 2.811z"></path>
            <path fill="#f9c2d2" style="fill: var(--color1, #f9c2d2)" d="M25.438 14.126c-3.624-0.001-6.561-2.939-6.562-6.562v-0c0.004-3.622 2.938-6.558 6.559-6.565h0.001c3.625 0.004 6.562 2.942 6.565 6.567v0c0 0.001 0 0.003 0 0.005 0 3.62-2.935 6.555-6.555 6.555-0.002 0-0.005 0-0.007 0h0z"></path>
            <path fill="#fff7e6" style="fill: var(--color5, #fff7e6)" d="M12.313 29.125c0.518 0 0.937-0.42 0.937-0.937s-0.42-0.937-0.937-0.937v0c-0.518 0-0.937 0.42-0.937 0.937s0.42 0.937 0.937 0.937v0z"></path>
            <path fill="#ffeacc" style="fill: var(--color6, #ffeacc)" d="M21.687 29.125c0.518 0 0.937-0.42 0.937-0.937s-0.42-0.937-0.937-0.937v0c-0.518 0-0.937 0.42-0.937 0.937s0.42 0.937 0.937 0.937v0z"></path>
            <path fill="#f98aab" style="fill: var(--color2, #f98aab)" d="M32 7.563c-0.004-3.623-2.939-6.559-6.562-6.565h-0v13.127c0.002 0 0.004 0 0.007 0 3.62 0 6.555-2.935 6.555-6.555 0-0.002 0-0.005 0-0.007v0z"></path>
            <path fill="#fff" style="fill: var(--color7, #fff)" d="M28.251 6.624h-1.874v-1.874h-1.877v1.874h-1.874v1.874h1.874v1.877h1.874v-1.874h1.874v-1.874z"></path>
            <path fill="#fff" style="fill: var(--color7, #fff)" d="M25.438 4.75v5.627h0.937v-1.874h1.874v-1.874h-1.874v-1.874h-0.937z"></path>
        </symbol>
        <symbol id="icon-Fast-Delivery" viewBox="0 0 32 32">
            <path fill="#e0e2e5" style="fill: var(--color8, #e0e2e5)" d="M25.889 18h-4.889c-0.276 0-0.5-0.224-0.5-0.5s0.224-0.5 0.5-0.5h4.889c0.276 0 0.5 0.224 0.5 0.5s-0.224 0.5-0.5 0.5v0z"></path>
            <path fill="#93573d" style="fill: var(--color9, #93573d)" d="M15 11.5l1 12v1h6v-1l1-12h-8z"></path>
            <path fill="#fdd14b" style="fill: var(--color10, #fdd14b)" d="M10 11.5v-0.5h-2v1.499h-2v5h4v-0.5h2v-5.5h-2z"></path>
            <path fill="#e4bc43" style="fill: var(--color11, #e4bc43)" d="M8 19c-0.276 0-0.5-0.224-0.5-0.5v0-5.5c0-0.276 0.224-0.5 0.5-0.5s0.5 0.224 0.5 0.5v0 5.5c-0 0.276-0.224 0.5-0.5 0.5 0 0 0 0 0 0v0zM10.072 20c0 0 0 0-0 0-0.275 0-0.497-0.221-0.5-0.495v-0l-0.071-7.5c0.007-0.271 0.228-0.488 0.5-0.488 0.269 0 0.488 0.212 0.5 0.478l0 0.001 0.071 7.5c0 0.001 0 0.003 0 0.005 0 0.274-0.221 0.497-0.495 0.5h-0.005z"></path>
            <path fill="#e74444" style="fill: var(--color12, #e74444)" d="M5.5 16.5l1 7v1h6v-8h-7.001z"></path>
            <path fill="#e0e2e5" style="fill: var(--color8, #e0e2e5)" d="M29 18h-1c-0.276 0-0.5-0.224-0.5-0.5s0.224-0.5 0.5-0.5h1c0.276 0 0.5 0.224 0.5 0.5s-0.224 0.5-0.5 0.5v0z"></path>
            <path fill="#a4d4f4" style="fill: var(--color13, #a4d4f4)" d="M23 11.5l-0.167 2h-7.666l-0.167-2h8z"></path>
            <path fill="#e0e2e5" style="fill: var(--color8, #e0e2e5)" d="M14.029 8.5c-0.276-0-0.5-0.224-0.5-0.5 0-0.103 0.031-0.199 0.085-0.279l-0.001 0.002 0.475-0.713c0.053-0.078 0.084-0.174 0.084-0.277 0-0.163-0.078-0.308-0.199-0.399l-0.001-0.001-0.486-0.365c-0.366-0.277-0.6-0.711-0.6-1.2 0-0.31 0.094-0.598 0.255-0.837l-0.003 0.005 0.475-0.713c0.092-0.129 0.24-0.212 0.409-0.212 0.276 0 0.5 0.224 0.5 0.5 0 0.099-0.029 0.191-0.078 0.268l0.001-0.002-0.475 0.713c-0.053 0.078-0.084 0.174-0.084 0.277 0 0.163 0.078 0.308 0.199 0.399l0.001 0.001 0.487 0.365c0.366 0.277 0.6 0.711 0.6 1.2 0 0.31-0.094 0.598-0.255 0.838l0.003-0.005-0.475 0.713c-0.091 0.135-0.243 0.223-0.416 0.223-0 0-0.001 0-0.001 0h0zM10.029 8.5c-0 0-0.001 0-0.001 0-0.276 0-0.5-0.224-0.5-0.5 0-0.104 0.032-0.2 0.086-0.28l-0.001 0.002 0.475-0.713c0.053-0.078 0.084-0.174 0.084-0.277 0-0.163-0.078-0.308-0.199-0.399l-0.001-0.001-0.486-0.365c-0.366-0.277-0.6-0.711-0.6-1.2 0-0.31 0.094-0.598 0.255-0.837l-0.003 0.005 0.475-0.713c0.090-0.141 0.246-0.234 0.423-0.234 0.276 0 0.5 0.224 0.5 0.5 0 0.108-0.034 0.208-0.093 0.29l0.001-0.002-0.475 0.713c-0.053 0.078-0.084 0.174-0.084 0.277 0 0.163 0.078 0.308 0.199 0.399l0.001 0.001 0.487 0.365c0.366 0.277 0.6 0.711 0.6 1.2 0 0.31-0.094 0.599-0.255 0.838l0.003-0.005-0.475 0.712c-0.091 0.135-0.243 0.223-0.416 0.223-0 0-0 0-0 0h0zM17.973 8.5c-0 0-0 0-0 0-0.276 0-0.5-0.224-0.5-0.5 0-0.104 0.032-0.2 0.086-0.28l-0.001 0.002 0.475-0.713c0.053-0.078 0.084-0.174 0.084-0.277 0-0.163-0.078-0.308-0.199-0.399l-0.001-0.001-0.487-0.365c-0.366-0.277-0.6-0.711-0.6-1.2 0-0.31 0.094-0.598 0.255-0.837l-0.003 0.005 0.475-0.713c0.091-0.135 0.243-0.223 0.416-0.223 0.276 0 0.5 0.224 0.5 0.5 0 0.103-0.031 0.199-0.085 0.279l0.001-0.002-0.475 0.713c-0.053 0.078-0.084 0.174-0.084 0.277 0 0.163 0.078 0.308 0.199 0.399l0.001 0.001 0.487 0.365c0.366 0.277 0.6 0.711 0.6 1.2 0 0.31-0.094 0.598-0.255 0.837l0.003-0.005-0.475 0.713c-0.091 0.135-0.243 0.223-0.416 0.223-0 0-0.001 0-0.001 0h0zM30.5 15h-5.5c-0.276 0-0.5-0.224-0.5-0.5s0.224-0.5 0.5-0.5h5.5c0.276 0 0.5 0.224 0.5 0.5s-0.224 0.5-0.5 0.5v0zM27 21h-3c-0.276 0-0.5-0.224-0.5-0.5s0.224-0.5 0.5-0.5v0h3c0.276 0 0.5 0.224 0.5 0.5s-0.224 0.5-0.5 0.5v0z"></path>
            <path fill="#c2c5c6" style="fill: var(--color14, #c2c5c6)" d="M30.5 29h-29.001c-0.276 0-0.5-0.224-0.5-0.5s0.224-0.5 0.5-0.5v0h29.001c0.276 0 0.5 0.224 0.5 0.5s-0.224 0.5-0.5 0.5v0z"></path>
            <path fill="#fdd14b" style="fill: var(--color10, #fdd14b)" d="M1.5 23.5h25.001v1c0 0.552-0.448 1-1 1-0 0-0 0-0.001 0h-23c-0 0-0 0-0.001 0-0.552 0-1-0.448-1-1v0-1z"></path>
            <path fill="#6a7073" style="fill: var(--color15, #6a7073)" d="M21.5 28.5c0.013 0 0.027 0 0.042 0 1.657 0 3-1.343 3-3s-1.343-3-3-3c-0.015 0-0.030 0-0.044 0l0.002-0c-1.639 0.024-2.958 1.358-2.958 3s1.319 2.976 2.956 3l0.002 0z"></path>
            <path fill="#99a2a7" style="fill: var(--color16, #99a2a7)" d="M21.5 26.5c0.007 0 0.016 0 0.024 0 0.552 0 1-0.448 1-1s-0.448-1-1-1c-0.009 0-0.017 0-0.026 0l0.001-0c-0.542 0.014-0.976 0.456-0.976 1s0.434 0.986 0.975 1l0.001 0z"></path>
            <path fill="#6a7073" style="fill: var(--color15, #6a7073)" d="M6.5 28.5c1.657 0 3-1.343 3-3s-1.343-3-3-3v0c-1.657 0-3 1.343-3 3s1.343 3 3 3v0z"></path>
            <path fill="#99a2a7" style="fill: var(--color16, #99a2a7)" d="M6.5 26.5c0.007 0 0.016 0 0.024 0 0.552 0 1-0.448 1-1s-0.448-1-1-1c-0.009 0-0.017 0-0.026 0l0.001-0c-0.542 0.014-0.976 0.456-0.976 1s0.434 0.986 0.975 1l0.001 0z"></path>
            <path fill="#ea8333" style="fill: var(--color17, #ea8333)" d="M9.5 21.5h9.001v1c0 0.552-0.448 1-1 1-0 0-0 0-0.001 0h-7c-0 0-0 0-0.001 0-0.552 0-1-0.448-1-1v0-1.001z"></path>
            <path fill="#794832" style="fill: var(--color18, #794832)" d="M18.091 19.5c0.502 0 0.909 0.448 0.909 1s-0.407 1-0.91 1h-8.181c-0.503 0-0.91-0.447-0.91-1s0.407-1 0.909-1h8.183z"></path>
            <path fill="#fdd14b" style="fill: var(--color10, #fdd14b)" d="M10 17.5h8v2h-8v-2z"></path>
            <path fill="#3ba673" style="fill: var(--color19, #3ba673)" d="M19.5 18c0 0.828-0.703 1.5-1.572 1.5-0.003 0-0.008 0-0.012 0-0.534 0-1.006-0.263-1.295-0.666l-0.003-0.005c-0.297 0.408-0.772 0.671-1.309 0.671s-1.013-0.262-1.306-0.666l-0.003-0.005c-0.296 0.408-0.772 0.671-1.31 0.671s-1.013-0.263-1.306-0.666l-0.003-0.005c-0.292 0.408-0.764 0.671-1.297 0.671-0.004 0-0.009-0-0.013-0h0.001c-0.868 0-1.571-0.671-1.571-1.5 0-0 0-0 0-0.001 0-0.276 0.224-0.5 0.5-0.5 0 0 0 0 0.001 0h9.999c0 0 0 0 0.001 0 0.276 0 0.5 0.224 0.5 0.5 0 0 0 0 0 0.001v-0z"></path>
            <path fill="#e74444" style="fill: var(--color12, #e74444)" d="M18.5 13.5v-4c0-0 0-0 0-0 0-0.209 0.128-0.388 0.311-0.463l0.003-0.001 2.5-1c0.053-0.021 0.114-0.033 0.178-0.033 0.276 0 0.5 0.224 0.5 0.5 0 0.207-0.125 0.384-0.304 0.46l-0.003 0.001-2.186 0.874v3.662h-0.999z"></path>
            <path fill="#ce3536" style="fill: var(--color20, #ce3536)" d="M18.5 11.5h1v2h-0.999v-2z"></path>
        </symbol>
        <symbol id="icon-free-shipping" viewBox="0 0 32 32">
            <path fill="#289bc3" style="fill: var(--color21, #289bc3)" d="M23.015 24.954v-13.6h-20.923v13.6c0 0.578 0.468 1.046 1.046 1.046h18.831c0.578 0 1.046-0.468 1.046-1.046v0z"></path>
            <path fill="#32283c" style="fill: var(--color22, #32283c)" d="M8.37 22.862h-2.092c-1.733 0-3.138 1.405-3.138 3.138s1.405 3.138 3.138 3.138h2.092c1.733 0 3.138-1.405 3.138-3.138s-1.405-3.138-3.138-3.138v0zM27.199 22.862h-2.092c-1.733 0-3.138 1.405-3.138 3.138s1.405 3.138 3.138 3.138h2.092c1.733 0 3.138-1.405 3.138-3.138s-1.405-3.138-3.138-3.138v0z"></path>
            <path fill="#555a6e" style="fill: var(--color23, #555a6e)" d="M25.107 29.138c1.733 0 3.138-1.405 3.138-3.138s-1.405-3.138-3.138-3.138v0c-1.733 0-3.138 1.405-3.138 3.138s1.405 3.138 3.138 3.138v0z"></path>
            <path fill="#e6e6eb" style="fill: var(--color24, #e6e6eb)" d="M25.106 27.046c0.578 0 1.046-0.468 1.046-1.046s-0.468-1.046-1.046-1.046v0c-0.578 0-1.046 0.468-1.046 1.046s0.468 1.046 1.046 1.046v0z"></path>
            <path fill="#32283c" style="fill: var(--color22, #32283c)" d="M18.831 22.862h-2.092c-1.733 0-3.138 1.405-3.138 3.138s1.405 3.138 3.138 3.138h2.092c1.733 0 3.138-1.405 3.138-3.138s-1.405-3.138-3.138-3.138v0z"></path>
            <path fill="#a5c3dc" style="fill: var(--color25, #a5c3dc)" d="M29.294 12.4h-15.692c-0.578 0-1.046 0.468-1.046 1.046v0 1.046h16.738c0.578 0 1.046-0.468 1.046-1.046s-0.468-1.046-1.046-1.046v0z"></path>
            <path fill="#d7e6f0" style="fill: var(--color26, #d7e6f0)" d="M18.832 12.4h-5.231c-0.578 0-1.046 0.468-1.046 1.046v0 1.046h6.277c0.578 0 1.046-0.468 1.046-1.046s-0.468-1.046-1.046-1.046v0z"></path>
            <path fill="#463c4b" style="fill: var(--color27, #463c4b)" d="M12.555 14.492h16.738v5.231h-16.738v-5.231z"></path>
            <path fill="#555a6e" style="fill: var(--color23, #555a6e)" d="M12.555 14.492h6.277v5.231h-6.277v-5.231z"></path>
            <path fill="#a5c3dc" style="fill: var(--color25, #a5c3dc)" d="M30.34 26h-16.738c-0.578 0-1.046-0.468-1.046-1.046v0-5.231h16.738c1.156 0 2.092 0.937 2.092 2.092v0 3.138c0 0.578-0.468 1.046-1.046 1.046v0z"></path>
            <path fill="#d7e6f0" style="fill: var(--color26, #d7e6f0)" d="M19.878 26h-6.277c-0.578 0-1.046-0.468-1.046-1.046v0-5.231h6.277c1.156 0 2.092 0.937 2.092 2.092v0 3.138c0 0.578-0.468 1.046-1.046 1.046v0z"></path>
            <path fill="#555a6e" style="fill: var(--color23, #555a6e)" d="M23.45 21.815h5.406c0.819 0 1.482 0.664 1.482 1.482s-0.664 1.482-1.482 1.482h-5.406c-0.819 0-1.482-0.664-1.482-1.482s0.664-1.482 1.482-1.482v0z"></path>
            <path fill="#00d2d2" style="fill: var(--color28, #00d2d2)" d="M23.452 24.082c0.433 0 0.785-0.351 0.785-0.785s-0.351-0.785-0.785-0.785v0c-0.433 0-0.785 0.351-0.785 0.785s0.351 0.785 0.785 0.785v0zM28.854 24.082c0.433 0 0.785-0.351 0.785-0.785s-0.351-0.785-0.785-0.785v0c-0.433 0-0.785 0.351-0.785 0.785s0.351 0.785 0.785 0.785v0z"></path>
            <path fill="#a5c3dc" style="fill: var(--color25, #a5c3dc)" d="M9.938 2.462h-3.138c-0.289 0-0.523 0.234-0.523 0.523s0.234 0.523 0.523 0.523v0c2.018 0 3.662 1.643 3.662 3.662 0 0.289 0.234 0.523 0.523 0.523h3.138c0.289 0 0.523-0.234 0.523-0.523 0-2.596-2.112-4.708-4.708-4.708z"></path>
            <path fill="#a5c3dc" style="fill: var(--color25, #a5c3dc)" d="M18.308 2.462h-3.138c-2.597 0-4.708 2.112-4.708 4.708 0 0.289 0.234 0.523 0.523 0.523h3.138c0.289 0 0.523-0.234 0.523-0.523 0-2.018 1.642-3.662 3.662-3.662 0.289 0 0.523-0.234 0.523-0.523s-0.234-0.523-0.523-0.523v0z"></path>
            <path fill="#a5c3dc" style="fill: var(--color25, #a5c3dc)" d="M20.4 2.462h-3.138c-0.289 0-0.523 0.234-0.523 0.523s0.234 0.523 0.523 0.523v0c0.866 0.001 1.568 0.703 1.569 1.569v0c-0.001 0.866-0.703 1.568-1.569 1.569h-0c-0.289 0-0.523 0.234-0.523 0.523s0.234 0.523 0.523 0.523h3.138c1.444-0.002 2.614-1.172 2.615-2.615v-0c-0.002-1.444-1.172-2.614-2.615-2.615h-0zM7.846 6.646c-0.866-0.001-1.568-0.703-1.569-1.569v-0c0.001-0.866 0.703-1.568 1.569-1.569h0c0.289 0 0.523-0.234 0.523-0.523s-0.234-0.523-0.523-0.523v0h-3.138c-1.444 0.002-2.614 1.172-2.615 2.615v0c0.002 1.444 1.172 2.614 2.615 2.615h3.139c0.289 0 0.523-0.234 0.523-0.523s-0.234-0.523-0.523-0.523v0z"></path>
            <path fill="#289bc3" style="fill: var(--color21, #289bc3)" d="M24.062 7.692h-23.015c-0.578 0-1.046 0.468-1.046 1.046v0 1.569c0 0.578 0.468 1.046 1.046 1.046h23.015c0.578 0 1.046-0.468 1.046-1.046v0-1.569c0-0.578-0.468-1.046-1.046-1.046v0z"></path>
            <path fill="#00d2d2" style="fill: var(--color28, #00d2d2)" d="M11.507 26h-8.369c-0.578 0-1.046-0.468-1.046-1.046v0-10.462h10.462v10.462c0 0.578-0.468 1.046-1.046 1.046v0zM12.554 7.692h-11.508c-0.578 0-1.046 0.468-1.046 1.046v0 1.569c0 0.578 0.468 1.046 1.046 1.046h11.508c0.578 0 1.046-0.468 1.046-1.046v0-1.569c0-0.578-0.468-1.046-1.046-1.046v0z"></path>
            <path fill="#d7e6f0" style="fill: var(--color26, #d7e6f0)" d="M7.322 10.308c0 0.578 0.468 1.046 1.046 1.046v0h-3.138c-0.578 0-1.046-0.468-1.046-1.046v0-1.569c0-0.578 0.468-1.046 1.046-1.046v0h3.138c-0.578 0-1.046 0.468-1.046 1.046v0 1.569z"></path>
            <path fill="#a5c3dc" style="fill: var(--color25, #a5c3dc)" d="M17.786 10.308c0 0.578-0.468 1.046-1.046 1.046h3.138c0.578 0 1.046-0.468 1.046-1.046v0-1.569c0-0.578-0.468-1.046-1.046-1.046v0h-3.138c0.578 0 1.046 0.468 1.046 1.046v0 1.569z"></path>
            <path fill="#d7e6f0" style="fill: var(--color26, #d7e6f0)" d="M17.263 7.692h-6.8v-0.523c0-2.596 2.112-4.708 4.708-4.708h2.092c1.444 0.002 2.614 1.172 2.615 2.615v0c-0.002 1.444-1.172 2.614-2.615 2.615h-0zM11.546 6.646h5.717c0.866-0.001 1.568-0.703 1.569-1.569v-0c-0.001-0.866-0.703-1.568-1.569-1.569h-2.092c-1.837 0.002-3.357 1.355-3.622 3.118l-0.002 0.020z"></path>
            <path fill="#d7e6f0" style="fill: var(--color26, #d7e6f0)" d="M11.507 7.692h-6.8c-1.444-0.002-2.614-1.172-2.615-2.615v-0c0.002-1.444 1.172-2.614 2.615-2.615h2.092c2.596 0 4.708 2.112 4.708 4.708v0.523zM4.707 3.508c-0.866 0.001-1.568 0.703-1.569 1.569v0c0.001 0.866 0.703 1.568 1.569 1.569h5.717c-0.267-1.784-1.788-3.136-3.624-3.138h-2.093z"></path>
            <path fill="#555a6e" style="fill: var(--color23, #555a6e)" d="M16.739 29.138c1.733 0 3.138-1.405 3.138-3.138s-1.405-3.138-3.138-3.138v0c-1.733 0-3.138 1.405-3.138 3.138s1.405 3.138 3.138 3.138v0z"></path>
            <path fill="#e6e6eb" style="fill: var(--color24, #e6e6eb)" d="M16.738 27.046c0.578 0 1.046-0.468 1.046-1.046s-0.468-1.046-1.046-1.046v0c-0.578 0-1.046 0.468-1.046 1.046s0.468 1.046 1.046 1.046v0z"></path>
            <path fill="#555a6e" style="fill: var(--color23, #555a6e)" d="M6.278 29.138c1.733 0 3.138-1.405 3.138-3.138s-1.405-3.138-3.138-3.138v0c-1.733 0-3.138 1.405-3.138 3.138s1.405 3.138 3.138 3.138v0z"></path>
            <path fill="#e6e6eb" style="fill: var(--color24, #e6e6eb)" d="M6.275 27.046c0.578 0 1.046-0.468 1.046-1.046s-0.468-1.046-1.046-1.046v0c-0.578 0-1.046 0.468-1.046 1.046s0.468 1.046 1.046 1.046v0z"></path>
        </symbol>
        <symbol id="icon-MasterCard" viewBox="0 0 32 32">
            <path fill="#ffb600" style="fill: var(--color29, #ffb600)" d="M31.655 16.316c0 5.108-4.126 9.284-9.283 9.284-5.108 0-9.284-4.176-9.284-9.284s4.125-9.284 9.233-9.284c5.207 0 9.333 4.176 9.333 9.284z"></path>
            <path fill="#f7981d" style="fill: var(--color30, #f7981d)" d="M22.373 7.033c5.108 0 9.283 4.176 9.283 9.284s-4.126 9.284-9.283 9.284c-5.108 0-9.284-4.176-9.284-9.284z"></path>
            <path fill="#ff8500" style="fill: var(--color31, #ff8500)" d="M22.373 7.033c5.108 0 9.283 4.176 9.283 9.284s-4.126 9.284-9.283 9.284z"></path>
            <path fill="#ff5050" style="fill: var(--color32, #ff5050)" d="M9.896 7.033c-5.060 0.049-9.186 4.176-9.186 9.284s4.126 9.284 9.284 9.284c2.407 0 4.569-0.933 6.238-2.406 0.344-0.295 0.639-0.639 0.933-0.983h-1.915c-0.225-0.272-0.451-0.576-0.662-0.891l-0.026-0.041h3.291c0.196-0.295 0.392-0.639 0.539-0.983h-4.371c-0.145-0.277-0.279-0.603-0.382-0.941l-0.011-0.041h5.108c0.294-0.933 0.491-1.915 0.491-2.947 0-0.688-0.098-1.326-0.197-1.965h-5.698c0.049-0.344 0.148-0.638 0.247-0.982h5.107c-0.115-0.38-0.248-0.706-0.409-1.016l0.015 0.033h-4.322c0.147-0.344 0.344-0.638 0.539-0.982h3.291c-0.212-0.374-0.456-0.697-0.737-0.984l0.001 0.001h-1.818c0.29-0.338 0.595-0.643 0.921-0.923l0.011-0.009c-1.62-1.524-3.831-2.407-6.237-2.407 0-0.099 0-0.099-0.049-0.099z"></path>
            <path fill="#e52836" style="fill: var(--color33, #e52836)" d="M0.71 16.316c0 5.108 4.126 9.284 9.284 9.284 2.407 0 4.569-0.933 6.238-2.406 0.344-0.295 0.639-0.639 0.933-0.983h-1.915c-0.225-0.272-0.451-0.576-0.662-0.891l-0.026-0.041h3.291c0.196-0.295 0.392-0.64 0.539-0.983h-4.371c-0.145-0.277-0.279-0.603-0.382-0.941l-0.011-0.041h5.108c0.294-0.933 0.491-1.915 0.491-2.947 0-0.688-0.098-1.326-0.197-1.965h-5.698c0.049-0.344 0.148-0.638 0.247-0.983h5.107c-0.115-0.38-0.248-0.705-0.409-1.015l0.015 0.033h-4.322c0.147-0.344 0.344-0.638 0.539-0.982h3.291c-0.212-0.374-0.456-0.697-0.737-0.984l0.001 0.001h-1.818c0.29-0.338 0.595-0.643 0.921-0.923l0.011-0.009c-1.62-1.524-3.831-2.407-6.237-2.407h-0.049z"></path>
            <path fill="#cb2026" style="fill: var(--color34, #cb2026)" d="M9.995 25.6c2.406 0 4.568-0.933 6.238-2.406 0.344-0.295 0.638-0.639 0.933-0.983h-1.915c-0.225-0.272-0.451-0.576-0.662-0.891l-0.026-0.041h3.291c0.196-0.295 0.393-0.64 0.539-0.983h-4.371c-0.145-0.277-0.278-0.603-0.382-0.941l-0.011-0.042h5.109c0.294-0.933 0.491-1.915 0.491-2.947 0-0.688-0.099-1.326-0.197-1.965h-5.698c0.049-0.344 0.147-0.638 0.245-0.983h5.109c-0.115-0.38-0.248-0.705-0.409-1.014l0.015 0.033h-4.323c0.148-0.344 0.344-0.638 0.54-0.982h3.291c-0.212-0.374-0.457-0.697-0.738-0.984l0.001 0.001h-1.818c0.29-0.338 0.595-0.643 0.921-0.923l0.011-0.009c-1.619-1.524-3.831-2.407-6.236-2.407h-0.049z"></path>
            <path fill="#fff" style="fill: var(--color7, #fff)" d="M13.285 18.673l0.146-0.835c-0.048 0-0.146 0.048-0.245 0.048-0.344 0-0.393-0.196-0.344-0.294l0.294-1.719h0.54l0.148-0.934h-0.492l0.099-0.59h-0.983s-0.589 3.242-0.589 3.635c0 0.59 0.344 0.835 0.786 0.835 0.294 0 0.539-0.098 0.638-0.147zM13.632 17.102c0 1.375 0.933 1.719 1.719 1.719 0.736 0 1.031-0.147 1.031-0.147l0.197-0.933s-0.54 0.245-1.032 0.245c-1.081 0-0.884-0.786-0.884-0.786h2.014s0.147-0.638 0.147-0.884c0-0.638-0.344-1.424-1.424-1.424-1.031-0.098-1.768 0.983-1.768 2.211zM15.351 15.677c0.539 0 0.442 0.638 0.442 0.688h-1.081c0-0.049 0.099-0.688 0.638-0.688zM21.594 18.673l0.197-1.081s-0.491 0.246-0.835 0.246c-0.688 0-0.983-0.54-0.983-1.13 0-1.179 0.59-1.818 1.277-1.818 0.491 0 0.884 0.295 0.884 0.295l0.147-1.031s-0.59-0.247-1.13-0.247c-1.129 0-2.258 0.983-2.258 2.85 0 1.228 0.589 2.063 1.767 2.063 0.393 0 0.933-0.146 0.933-0.146zM7.884 14.793c-0.688 0-1.179 0.197-1.179 0.197l-0.147 0.835s0.442-0.197 1.081-0.197c0.344 0 0.638 0.049 0.638 0.344 0 0.197-0.048 0.246-0.048 0.246h-0.442c-0.835 0-1.768 0.344-1.768 1.473 0 0.884 0.59 1.081 0.933 1.081 0.688 0 0.983-0.442 1.032-0.442l-0.049 0.393h0.884l0.393-2.702c0-1.179-0.982-1.228-1.326-1.228zM8.080 17.003c0 0.147-0.098 0.933-0.688 0.933-0.294 0-0.393-0.246-0.393-0.393 0-0.245 0.148-0.59 0.885-0.59 0.057 0.023 0.123 0.041 0.192 0.049l0.004 0zM10.143 18.771c0.246 0 1.474 0.049 1.474-1.277 0-1.228-1.179-0.982-1.179-1.473 0-0.246 0.197-0.344 0.54-0.344 0.148 0 0.688 0.048 0.688 0.048l0.148-0.884s-0.344-0.098-0.934-0.098c-0.737 0-1.474 0.294-1.474 1.277 0 1.13 1.228 1.031 1.228 1.473 0 0.295-0.344 0.345-0.589 0.345-0.443 0-0.884-0.148-0.884-0.148l-0.148 0.884c0.049 0.099 0.295 0.197 1.13 0.197zM29.745 14.007l-0.197 1.326s-0.393-0.49-0.933-0.49c-0.885 0-1.67 1.081-1.67 2.357 0 0.786 0.393 1.621 1.228 1.621 0.589 0 0.933-0.393 0.933-0.393l-0.048 0.345h0.982l0.737-4.716-1.031-0.049zM29.303 16.611c0 0.539-0.245 1.228-0.786 1.228-0.343 0-0.539-0.295-0.539-0.786 0-0.786 0.344-1.277 0.786-1.277 0.343 0 0.539 0.246 0.539 0.836zM2.533 18.723l0.589-3.536 0.099 3.536h0.688l1.277-3.536-0.54 3.536h1.031l0.786-4.716h-1.621l-0.983 2.898-0.048-2.898h-1.424l-0.786 4.716h0.933zM17.759 18.723c0.295-1.621 0.344-2.948 1.031-2.702 0.099-0.639 0.246-0.884 0.344-1.13h-0.197c-0.442 0-0.786 0.59-0.786 0.59l0.099-0.54h-0.933l-0.639 3.831h1.081v-0.048zM23.852 14.793c-0.688 0-1.179 0.197-1.179 0.197l-0.146 0.835s0.442-0.197 1.080-0.197c0.344 0 0.639 0.049 0.639 0.344 0 0.197-0.049 0.246-0.049 0.246h-0.442c-0.836 0-1.769 0.344-1.769 1.473 0 0.884 0.59 1.081 0.933 1.081 0.688 0 0.983-0.442 1.031-0.442l-0.048 0.393h0.884l0.393-2.702c0.048-1.179-0.983-1.228-1.327-1.228zM24.097 17.003c0 0.147-0.098 0.933-0.688 0.933-0.294 0-0.393-0.246-0.393-0.393 0-0.245 0.148-0.59 0.885-0.59 0.146 0.049 0.146 0.049 0.197 0.049zM26.010 18.723c0.294-1.621 0.344-2.948 1.031-2.702 0.098-0.639 0.245-0.884 0.344-1.13h-0.197c-0.442 0-0.786 0.59-0.786 0.59l0.099-0.54h-0.933l-0.638 3.831h1.081v-0.048z"></path>
            <path fill="#dce5e5" style="fill: var(--color35, #dce5e5)" d="M11.763 17.986c0 0.59 0.344 0.835 0.786 0.835 0.344 0 0.638-0.098 0.737-0.147l0.146-0.835c-0.048 0-0.146 0.048-0.245 0.048-0.344 0-0.393-0.196-0.344-0.294l0.294-1.719h0.54l0.148-0.934h-0.492l0.099-0.59zM14.12 17.102c0 1.375 0.443 1.719 1.228 1.719 0.737 0 1.032-0.147 1.032-0.147l0.197-0.933s-0.54 0.245-1.032 0.245c-1.081 0-0.884-0.786-0.884-0.786h2.014s0.147-0.638 0.147-0.884c0-0.638-0.344-1.424-1.424-1.424-1.031-0.098-1.277 0.983-1.277 2.211zM15.348 15.677c0.54 0 0.639 0.638 0.639 0.688h-1.277c0-0.049 0.099-0.688 0.638-0.688zM21.592 18.673l0.197-1.081s-0.491 0.246-0.836 0.246c-0.688 0-0.982-0.54-0.982-1.13 0-1.179 0.59-1.818 1.277-1.818 0.491 0 0.884 0.295 0.884 0.295l0.147-1.031s-0.59-0.247-1.13-0.247c-1.129 0-1.768 0.983-1.768 2.85 0 1.228 0.099 2.063 1.277 2.063 0.393 0 0.933-0.146 0.933-0.146zM6.557 15.874s0.442-0.197 1.081-0.197c0.344 0 0.638 0.048 0.638 0.344 0 0.197-0.048 0.245-0.048 0.245h-0.442c-0.835 0-1.768 0.345-1.768 1.474 0 0.884 0.59 1.081 0.933 1.081 0.688 0 0.983-0.442 1.032-0.442l-0.049 0.393h0.884l0.393-2.702c0-1.129-0.982-1.178-1.375-1.178l-1.277 0.983zM8.571 17.003c0 0.147-0.59 0.933-1.179 0.933-0.294 0-0.393-0.246-0.393-0.393 0-0.245 0.148-0.59 0.885-0.59 0.146 0.049 0.688 0.049 0.688 0.049zM9.063 18.673s0.294 0.098 1.13 0.098c0.245 0 1.474 0.049 1.474-1.277 0-1.228-1.179-0.982-1.179-1.473 0-0.246 0.197-0.344 0.54-0.344 0.147 0 0.688 0.048 0.688 0.048l0.147-0.884s-0.344-0.098-0.933-0.098c-0.737 0-0.983 0.294-0.983 1.277 0 1.13 0.737 1.031 0.737 1.473 0 0.295-0.344 0.345-0.59 0.345zM29.546 15.333s-0.393-0.49-0.933-0.49c-0.884 0-1.179 1.080-1.179 2.357 0 0.786-0.098 1.621 0.737 1.621 0.59 0 0.933-0.393 0.933-0.393l-0.049 0.345h0.983l0.737-4.716-1.228 1.277zM29.498 16.611c0 0.539-0.442 1.228-0.983 1.228-0.344 0-0.539-0.295-0.539-0.786 0-0.786 0.343-1.277 0.785-1.277 0.344 0 0.737 0.246 0.737 0.836zM2.533 18.723l0.589-3.536 0.099 3.536h0.688l1.277-3.536-0.54 3.536h1.031l0.786-4.716h-1.228l-1.376 2.898-0.048-2.898h-0.54l-1.67 4.716h0.933zM16.727 18.723h1.031c0.295-1.621 0.344-2.948 1.031-2.702 0.099-0.639 0.246-0.884 0.344-1.13h-0.197c-0.442 0-0.786 0.59-0.786 0.59l0.099-0.54zM22.525 15.874s0.442-0.197 1.081-0.197c0.344 0 0.639 0.048 0.639 0.344 0 0.197-0.049 0.245-0.049 0.245h-0.442c-0.836 0-1.769 0.345-1.769 1.474 0 0.884 0.59 1.081 0.933 1.081 0.688 0 0.983-0.442 1.031-0.442l-0.048 0.393h0.884l0.393-2.702c0-1.129-0.983-1.178-1.376-1.178l-1.277 0.983zM24.539 17.003c0 0.147-0.59 0.933-1.179 0.933-0.294 0-0.393-0.246-0.393-0.393 0-0.245 0.148-0.59 0.885-0.59 0.197 0.049 0.688 0.049 0.688 0.049zM24.981 18.723h1.031c0.295-1.621 0.345-2.948 1.032-2.702 0.098-0.639 0.245-0.884 0.344-1.13h-0.197c-0.442 0-0.786 0.59-0.786 0.59l0.099-0.54z"></path>
        </symbol>
        <symbol id="icon-Order-Your-Food" viewBox="0 0 32 32">
            <path fill="#f98aab" style="fill: var(--color2, #f98aab)" d="M4.312 12.104h4.844c0.33-0.019 0.591-0.292 0.591-0.625s-0.26-0.606-0.589-0.625l-0.002-0h-4.844c-0.33 0.019-0.591 0.292-0.591 0.625s0.26 0.606 0.589 0.625l0.002 0zM4.312 16.434h4.844c0.33-0.019 0.591-0.292 0.591-0.625s-0.26-0.606-0.589-0.625l-0.002-0h-4.844c-0.33 0.019-0.591 0.292-0.591 0.625s0.26 0.606 0.589 0.625l0.002 0zM10.318 26.91c-0.098-0.228-0.321-0.386-0.581-0.386-0.085 0-0.166 0.017-0.24 0.047l0.004-0.002c-0.229 0.098-0.387 0.321-0.387 0.581 0 0.086 0.017 0.168 0.049 0.243l-0.002-0.004c0.132 0.312 0.502 0.466 0.818 0.336 0.228-0.098 0.384-0.321 0.384-0.58 0-0.085-0.017-0.166-0.047-0.24l0.002 0.004z"></path>
            <path fill="#f98aab" style="fill: var(--color2, #f98aab)" d="M31.832 17.238l-7.432-7.98 2.276-2.272c0.396-0.39 0.614-0.912 0.614-1.468 0-0.548-0.212-1.064-0.6-1.454-0.377-0.376-0.897-0.609-1.472-0.609-0.564 0-1.075 0.224-1.45 0.588l-0.005 0.005-3.12 3.112h-1.168v-2.4c-0.001-0.344-0.28-0.623-0.624-0.624h-3.312v-0.51c-0.019-0.33-0.292-0.591-0.625-0.591s-0.606 0.26-0.625 0.589l-0 0.002v0.51h-2.284v-0.51c-0.019-0.33-0.292-0.591-0.625-0.591s-0.606 0.26-0.625 0.589l-0 0.002v0.51h-2.282v-0.51c-0.019-0.33-0.292-0.591-0.625-0.591s-0.606 0.26-0.625 0.589l-0 0.002v0.51h-2.284v-0.51c-0.019-0.33-0.292-0.591-0.625-0.591s-0.606 0.26-0.625 0.589l-0 0.002v0.51h-3.062c0 0 0 0 0 0-0.345 0-0.625 0.279-0.626 0.624v22.388c0 0.346 0.28 0.626 0.626 0.626h6.38c0.33-0.019 0.591-0.292 0.591-0.625s-0.26-0.606-0.589-0.625l-0.002-0h-5.758v-21.14h2.44v0.568c0.027 0.324 0.296 0.576 0.624 0.576s0.597-0.252 0.624-0.574l0-0.002v-0.566h2.284v0.566c0.019 0.33 0.292 0.591 0.625 0.591s0.606-0.26 0.625-0.589l0-0.002v-0.566h2.282v0.566c0.019 0.33 0.292 0.591 0.625 0.591s0.606-0.26 0.625-0.589l0-0.002v-0.566h2.284v0.566c0.019 0.33 0.292 0.591 0.625 0.591s0.606-0.26 0.625-0.589l0-0.002v-0.566h2.684v1.78c-1.171 0.052-2.219 0.543-2.99 1.31l-4.6 4.6c-0.111 0.114-0.18 0.269-0.18 0.441 0 0.218 0.111 0.411 0.28 0.524l0.002 0.001c0.652 0.428 1.451 0.682 2.309 0.682 0.004 0 0.008 0 0.011 0h0.001l-0.716 0.716c-0.050 0.050-0.092 0.109-0.122 0.174l-0.002 0.004-2.004 3.012c-0.146 0.214-0.233 0.478-0.233 0.763 0 0.041 0.002 0.082 0.005 0.123l-0-0.005h-5.668c-0.33 0.019-0.591 0.292-0.591 0.625s0.26 0.606 0.589 0.625l0.002 0h7.040c0.286-0.003 0.55-0.092 0.769-0.243l-0.005 0.003 3.048-2.072c0.038-0.025 0.070-0.051 0.1-0.080l-0 0 1.414-1.412 1.542 1.54v8.028h-5.72c-0.33 0.019-0.591 0.292-0.591 0.625s0.26 0.606 0.589 0.625l0.002 0h6.346c0.344 0 0.624-0.28 0.624-0.626v-7.432c0.79 0.656 1.776 1.014 2.816 1.014h2.494c0.52 0 1.020 0.214 1.376 0.586l4.76 5.060c0.38 0.402 1.082 0.126 1.082-0.428v-8.284c0 0 0-0 0-0 0-0.165-0.064-0.315-0.168-0.426l0 0zM16.116 9.358c0.587-0.585 1.396-0.947 2.29-0.948h0.98l-3.894 3.886c-0.36 0.346-0.702 0.684-1.164 0.9-0.68 0.314-1.472 0.364-2.188 0.14l3.976-3.976zM24.638 4.938c0.149-0.145 0.353-0.234 0.578-0.234 0.229 0 0.436 0.093 0.586 0.242l-0-0c0.147 0.147 0.239 0.35 0.239 0.574 0 0.228-0.094 0.434-0.246 0.582l-0 0-6.534 6.514-0.316-0.314c-0.288-0.287-0.648-0.503-1.051-0.618l-0.017-0.004 6.764-6.744zM11.416 19.486c-0.054 0.036-0.104 0.032-0.15-0.014-0.070-0.068-0.034-0.12-0.016-0.15l1.634-2.454 0.964 0.964-2.432 1.654zM14.826 17.040l-1.16-1.16 1.192-1.188c0.112 0.406 0.334 0.778 0.632 1.076l0.306 0.304-0.97 0.968zM30.75 24.37l-3.684-3.916c-0.577-0.601-1.387-0.975-2.284-0.976h-2.494c-0.844 0-1.64-0.328-2.236-0.924l-3.68-3.672c-0.53-0.4-0.412-1.282 0-1.7 0.219-0.211 0.517-0.34 0.846-0.34s0.627 0.13 0.846 0.341l2.99 2.992c0.24 0.24 0.642 0.24 0.884 0 0.113-0.113 0.183-0.269 0.183-0.442s-0.070-0.329-0.183-0.442v0l-1.792-1.792 3.368-3.36 7.236 7.77v6.462z"></path>
        </symbol>
        <symbol id="icon-PP" viewBox="0 0 32 32">
            <path fill="#03a9f4" style="fill: var(--color36, #03a9f4)" d="M26.429 7.36c-0.096-0.058-0.213-0.092-0.337-0.092-0.342 0-0.624 0.258-0.662 0.59l-0 0.003c-0.025 0.218-0.061 0.436-0.108 0.666-1.306 5.924-3.927 8.806-8.016 8.806h-6c-0.321 0.001-0.588 0.228-0.651 0.529l-0.001 0.004-2 9.375-0.358 2.385c-0.022 0.112-0.035 0.241-0.035 0.372 0 1.102 0.89 1.995 1.991 2h4.014c0.002 0 0.004 0 0.006 0 0.932 0 1.714-0.64 1.931-1.505l0.003-0.014 1.62-6.481h3.479c4.105 0 6.943-3.273 7.988-9.217 0.126-0.496 0.199-1.066 0.199-1.653 0-2.391-1.205-4.501-3.040-5.756l-0.024-0.015z"></path>
            <path fill="#283593" style="fill: var(--color37, #283593)" d="M25.171 2.377c-1.278-1.445-3.131-2.357-5.197-2.377l-0.003-0h-11.040c-0.005-0-0.011-0-0.018-0-1.662 0-3.038 1.222-3.279 2.817l-0.002 0.018-3.428 22.867c-0.014 0.090-0.022 0.193-0.022 0.298 0 1.105 0.895 2 2 2 0.001 0 0.002 0 0.004 0h5.12c0.321-0.001 0.588-0.228 0.651-0.529l0.001-0.004 1.887-8.8h5.466c4.745 0 7.879-3.316 9.319-9.866 0.058-0.262 0.102-0.525 0.132-0.791 0.059-0.338 0.092-0.726 0.092-1.123 0-1.729-0.637-3.308-1.689-4.517l0.007 0.008z"></path>
        </symbol>
        <symbol id="icon-Select-Your-Food" viewBox="0 0 32 32">
            <path fill="#f98aab" style="fill: var(--color2, #f98aab)" d="M17.664 7.765c1.64-0.681 2.522-2.266 2.123-3.817s-1.973-2.654-3.787-2.654-3.388 1.103-3.787 2.654c-0.399 1.551 0.484 3.136 2.123 3.817h3.328z"></path>
            <path fill="#f98aab" style="fill: var(--color2, #f98aab)" d="M11.599 9.060c-0.15-0.001-0.284-0.068-0.376-0.173l-0.001-0.001c-2.15-2.406-2.266-6.129-0.269-8.68 0.093-0.127 0.241-0.208 0.408-0.208 0.029 0 0.057 0.002 0.084 0.007l-0.003-0c0.19 0.037 0.342 0.171 0.402 0.348l0.001 0.004c0.064 0.188 0.028 0.395-0.094 0.546-1.666 2.125-1.568 5.227 0.226 7.232 0.087 0.1 0.14 0.231 0.14 0.375 0 0.078-0.016 0.152-0.044 0.22l0.001-0.004c-0.076 0.193-0.26 0.328-0.476 0.331h-0zM21.208 6.472c-0.005 0-0.011 0-0.017 0-0.189 0-0.358-0.086-0.47-0.221l-0.001-0.001c-0.052-0.065-0.083-0.148-0.083-0.239 0-0.079 0.024-0.153 0.065-0.214l-0.001 0.001c1.039-1.638 0.772-3.616-0.68-5.033-0.086-0.073-0.14-0.181-0.14-0.302 0-0.057 0.012-0.111 0.034-0.16l-0.001 0.003c0.087-0.166 0.251-0.282 0.444-0.299l0.002-0c0.029-0.005 0.062-0.007 0.096-0.007 0.172 0 0.328 0.067 0.443 0.177l-0-0c1.741 1.702 2.063 4.079 0.815 6.044-0.11 0.154-0.288 0.253-0.488 0.253-0.007 0-0.014-0-0.021-0l0.001 0z"></path>
            <path fill="#f98aab" style="fill: var(--color2, #f98aab)" d="M26.353 14.805v8.346s0 2.842-1.73 4.486c-0.185 0.186-0.3 0.443-0.3 0.726 0 0.008 0 0.016 0 0.024l-0-0.001v1.619c0 0.582-0.454 1.052-1.015 1.054h-8.113c-0.564-0.013-1.017-0.473-1.017-1.039 0-0.005 0-0.011 0-0.016v0.001-0.196c0.002-0.845-0.326-1.656-0.905-2.246-0.979-0.992-2.49-2.705-3.151-4.412-1.013-2.635-3.042-6.328-4.056-7.383s0-2.108 1.015-2.108 3.042 2.108 4.056 3.689c0.324 0.51 0.7 0.979 1.126 1.399 0.254 0.245 0.608 0.339 0.941 0.247 0.339-0.096 0.603-0.353 0.706-0.682l0.002-0.007c0.194-0.651 0.282-1.329 0.269-2.010v-12.126c-0-0.006-0-0.013-0-0.019 0-0.848 0.676-1.539 1.519-1.562l0.002-0c0.84 0 1.521 0.708 1.521 1.581v6.327c-0-0.006-0-0.013-0-0.019 0-0.849 0.677-1.54 1.521-1.562l0.002-0c0.84 0 1.521 0.708 1.521 1.581v1.581c0-0.418 0.16-0.821 0.446-1.116 0.154-0.163 0.344-0.289 0.558-0.366l0.010-0.003c0.147-0.060 0.318-0.094 0.497-0.094 0.004 0 0.008 0 0.012 0h-0.001c0.838 0 1.519 0.708 1.519 1.581v2.635c0-0.42 0.162-0.821 0.446-1.118 0.154-0.163 0.344-0.289 0.558-0.366l0.010-0.003c0.15-0.059 0.324-0.093 0.505-0.093 0.040 0 0.080 0.002 0.119 0.005l-0.005-0c0.815 0.090 1.427 0.813 1.41 1.666z"></path>
            <path fill="#f8edf0" style="fill: var(--color38, #f8edf0)" d="M16.028 2.622c-0.002 0-0.005-0-0.008-0-0.185 0-0.361 0.035-0.524 0.098l0.010-0.003c-0.613 0.216-1.045 0.791-1.045 1.466 0 0.002 0 0.004 0 0.006v-0 12.015c0.015 0.674-0.079 1.346-0.279 1.992-0.085 0.246-0.251 0.445-0.466 0.571l-0.005 0.003c0.151 0.090 0.333 0.144 0.527 0.144 0.459 0 0.848-0.298 0.986-0.71l0.002-0.007c0.2-0.646 0.294-1.318 0.279-1.992v-12.015c0-0.002 0-0.004 0-0.006 0-0.675 0.432-1.25 1.034-1.463l0.011-0.003c-0.153-0.060-0.33-0.094-0.515-0.094-0.003 0-0.006 0-0.009 0h0zM18.641 8.984c-0.613 0.216-1.045 0.791-1.045 1.466 0 0.002 0 0.004 0 0.006v-0 4.702c0.017 0.275 0.244 0.492 0.522 0.492s0.505-0.217 0.522-0.49l0-0.002v-4.702c0-0.002 0-0.004 0-0.006 0-0.675 0.432-1.25 1.034-1.463l0.011-0.003c-0.155-0.060-0.335-0.094-0.522-0.094s-0.367 0.034-0.533 0.097l0.010-0.003zM21.781 10.552c-0.614 0.22-1.045 0.797-1.045 1.474v0 3.132c0 0.288 0.234 0.522 0.522 0.522s0.522-0.234 0.522-0.522v0-3.134c0-0.002 0-0.004 0-0.006 0-0.675 0.432-1.25 1.034-1.463l0.011-0.003c-0.155-0.060-0.335-0.094-0.522-0.094s-0.367 0.034-0.533 0.097l0.010-0.003zM25.436 13.069c-0.003-0-0.006-0-0.010-0-0.185 0-0.361 0.035-0.523 0.098l0.010-0.003c-0.614 0.22-1.045 0.797-1.045 1.474v0 1.043c0 0.288 0.234 0.522 0.522 0.522s0.522-0.234 0.522-0.522v0-1.045c0-0.002 0-0.004 0-0.006 0-0.675 0.432-1.25 1.034-1.463l0.011-0.003c-0.152-0.060-0.329-0.094-0.514-0.094-0.003 0-0.006 0-0.008 0h0zM24.412 18.118c-0.358 0-0.648 0.216-0.648 0.486v2.912c0 0.267 0.29 0.486 0.648 0.486s0.648-0.218 0.648-0.486v-2.912c0-0.269-0.29-0.486-0.648-0.486zM24.64 23.294c-0.232 0.006-0.422 0.275-0.44 0.623-0.026 0.322-0.135 0.613-0.307 0.858l0.004-0.006c-0.084 0.132-0.134 0.294-0.134 0.466 0 0.057 0.005 0.113 0.016 0.168l-0.001-0.006c0.040 0.226 0.158 0.403 0.307 0.463 0.151 0.058 0.311-0.009 0.418-0.177 0.328-0.456 0.527-1.082 0.557-1.752 0-0.35-0.188-0.634-0.42-0.638zM16.862 28.471h-0.429c-0.237 0-0.431 0.29-0.431 0.648s0.194 0.648 0.433 0.648h0.429c0.239 0 0.433-0.292 0.433-0.648 0-0.358-0.194-0.648-0.433-0.648zM22.039 28.471h-3.019c-0.237 0-0.431 0.29-0.431 0.648s0.194 0.648 0.433 0.648h3.017c0.239 0 0.433-0.292 0.433-0.648 0-0.358-0.194-0.648-0.433-0.648z"></path>
        </symbol>
        <symbol id="icon-VISA" viewBox="0 0 32 32">
            <path fill="#2394bc" style="fill: var(--color39, #2394bc)" d="M13.056 11.026l-1.553 9.665h2.482l1.552-9.665h-2.482zM20.544 14.963c-0.868-0.428-1.399-0.717-1.399-1.156 0.010-0.398 0.449-0.806 1.43-0.806 0.037-0.001 0.080-0.002 0.123-0.002 0.624 0 1.217 0.132 1.753 0.371l-0.027-0.011 0.225 0.101 0.338-2.022c-0.653-0.252-1.409-0.398-2.199-0.398-0.010 0-0.021 0-0.031 0h0.002c-2.451 0-4.178 1.274-4.188 3.097-0.020 1.345 1.236 2.092 2.176 2.54 0.96 0.459 1.287 0.758 1.287 1.165-0.010 0.627-0.776 0.916-1.491 0.916-0.99 0-1.522-0.149-2.329-0.498l-0.327-0.149-0.347 2.102c0.583 0.259 1.655 0.487 2.769 0.499 2.605 0 4.3-1.255 4.321-3.198 0.009-1.066-0.653-1.882-2.085-2.55zM29.351 11.056h-1.921c-0.592 0-1.042 0.17-1.298 0.777l-3.688 8.857h2.606l0.717-1.917h2.915l0.372 1.925h2.298l-2.002-9.642zM26.49 16.838c0.050 0.005 0.999-3.13 0.999-3.13l0.757 3.13h-1.757zM9.429 11.026l-2.432 6.567-0.265-1.295c-0.45-1.494-1.859-3.118-3.433-3.924l2.227 8.308h2.627l3.903-9.654-2.627-0.001z"></path>
            <path fill="#efc75e" style="fill: var(--color40, #efc75e)" d="M5.914 12.274c-0.189-0.737-0.793-1.234-1.614-1.245h-3.852l-0.040 0.179c3.004 0.741 5.526 3.020 6.345 5.164l-0.839-4.098z"></path>
        </symbol>
        <symbol id="icon-Quick-Packaging" viewBox="0 0 24 32">
            <path fill="#e74444" style="fill: var(--color12, #e74444)" d="M11.824 13.86l-10.102 1.831 3.791 14.873c0.11 0.403 0.476 0.696 0.897 0.696h10.99c0.421 0 0.788-0.293 0.898-0.696l3.792-14.873-10.265-1.831zM10.073 11.112c0.506 0 0.915-0.409 0.915-0.915v-9.281c0-0.506-0.41-0.915-0.915-0.915s-0.915 0.41-0.915 0.915v9.28c0 0.506 0.409 0.915 0.915 0.915zM13.737 11.112c0.506 0 0.915-0.409 0.915-0.915v-9.281c0-0.506-0.41-0.916-0.916-0.916s-0.916 0.41-0.916 0.916v0 9.28c0 0.506 0.409 0.915 0.915 0.915z"></path>
            <path fill="#fdd14b" style="fill: var(--color10, #fdd14b)" d="M23.3 11.204c-0.44-0.22-0.99-0.037-1.228 0.421l-1.117 2.235-2.784-4.176c-0.17-0.245-0.45-0.403-0.766-0.403-0.001 0-0.002 0-0.004 0h-10.99c-0.001 0-0.002 0-0.003 0-0.316 0-0.596 0.158-0.764 0.4l-0.002 0.003-2.783 4.176-1.118-2.236c-0.238-0.458-0.788-0.641-1.228-0.421-0.458 0.238-0.64 0.787-0.42 1.227l1.63 3.26h20.368l1.63-3.26c0.22-0.439 0.037-0.989-0.421-1.227zM11.907 20.27c-1.517 0.002-2.746 1.231-2.748 2.747v0c0.002 1.517 1.231 2.746 2.747 2.748h0c1.517-0.002 2.746-1.231 2.748-2.747v-0c-0.002-1.517-1.231-2.746-2.747-2.748h-0z"></path>
        </symbol>
        <symbol id="icon--Money-Back" viewBox="0 0 32 32">
            <path fill="#289bc3" style="fill: var(--color21, #289bc3)" d="M25.873 22.089h-16.751c-0.375-0-0.679-0.304-0.679-0.679v0-7.824c0-0.375 0.304-0.679 0.679-0.679h16.749c0.375 0 0.679 0.304 0.679 0.679v7.824c0 0 0 0 0 0.001 0 0.375-0.304 0.679-0.679 0.679-0 0-0 0-0.001 0h0z"></path>
            <path fill="#3ba673" style="fill: var(--color19, #3ba673)" d="M8.462 21.127l0.961 0.961h16.449c0.375 0 0.679-0.304 0.679-0.679v-7.824c0-0.375-0.304-0.679-0.679-0.679v0h-16.749c-0.375 0-0.679 0.304-0.679 0.679v0 7.503l0.018 0.039z"></path>
            <path fill="#3ba673" style="fill: var(--color19, #3ba673)" d="M24.852 21.070h-16.751c-0.375 0-0.679-0.304-0.679-0.678v-7.824c0-0.375 0.304-0.679 0.679-0.679h16.749c0.375 0 0.679 0.304 0.679 0.679v7.824c-0 0.375-0.304 0.678-0.678 0.679h-0z"></path>
            <path fill="#3ba673" style="fill: var(--color19, #3ba673)" d="M7.441 20.109l0.961 0.961h16.449c0.375 0 0.679-0.304 0.679-0.678v-7.824c0-0.375-0.304-0.679-0.678-0.679h-16.751c-0.375 0-0.679 0.304-0.679 0.679v0 7.502l0.018 0.040z"></path>
            <path fill="#3ba673" style="fill: var(--color19, #3ba673)" d="M23.836 20.051h-16.75c-0.375 0-0.679-0.304-0.679-0.678v-7.823c0-0.375 0.304-0.679 0.679-0.679h16.749c0.375 0 0.679 0.304 0.679 0.679v7.824c0 0.375-0.304 0.679-0.678 0.679h-0z"></path>
            <path fill="#3ba673" style="fill: var(--color19, #3ba673)" d="M6.425 19.091l0.961 0.96h16.449c0.375-0 0.678-0.304 0.679-0.678v-7.823c-0-0.375-0.304-0.678-0.678-0.679h-16.75c-0.375 0-0.679 0.304-0.679 0.678v7.503l0.018 0.039z"></path>
            <path fill="#a5c3dc" style="fill: var(--color25, #a5c3dc)" d="M22.878 19.093h-16.749c-0.375 0-0.679-0.304-0.679-0.678v-7.824c0-0.375 0.304-0.679 0.679-0.679h16.75c0.375 0 0.679 0.304 0.679 0.679v7.824c-0 0.375-0.304 0.679-0.679 0.679v0z"></path>
            <path fill="#3ba673" style="fill: var(--color19, #3ba673)" d="M22.533 11.852c-0.495-0.030-0.889-0.424-0.918-0.917l-0-0.003c-0.006-0.109 0.007-0.213 0.034-0.312h-14.294c0.023 0.079 0.036 0.169 0.036 0.263 0 0.518-0.407 0.942-0.918 0.968l-0.002 0c-0.015 0.001-0.034 0.001-0.052 0.001-0.151 0-0.294-0.035-0.422-0.096l0.006 0.003v5.484c0.122-0.060 0.266-0.095 0.418-0.095 0.519 0 0.942 0.408 0.968 0.92l0 0.002c0.006 0.108-0.007 0.213-0.034 0.311h14.294c-0.023-0.078-0.036-0.168-0.036-0.26 0-0.018 0-0.036 0.001-0.054l-0 0.002c0.029-0.495 0.423-0.889 0.915-0.92l0.003-0c0.168-0.009 0.327 0.025 0.468 0.092v-5.484c-0.121 0.059-0.264 0.093-0.414 0.093-0.019 0-0.037-0.001-0.056-0.002l0.003 0z"></path>
            <path fill="#a5c3dc" style="fill: var(--color25, #a5c3dc)" d="M14.502 16.854c1.299 0 2.351-1.053 2.351-2.351s-1.053-2.351-2.351-2.351v0c-1.299 0-2.351 1.053-2.351 2.351s1.053 2.351 2.351 2.351v0z"></path>
            <path fill="#a5c3dc" style="fill: var(--color25, #a5c3dc)" d="M11.27 11.485h-3.611v1.039h3.611v-1.039z"></path>
            <path fill="#a5c3dc" style="fill: var(--color25, #a5c3dc)" d="M21.344 16.481h-3.611v1.039h3.611v-1.039z"></path>
            <path fill="#fdd14b" style="fill: var(--color10, #fdd14b)" d="M31.078 7.253c-0.143-0.054-0.309-0.085-0.482-0.085-0.513 0-0.962 0.275-1.207 0.686l-0.004 0.006c-1.1-1.792-2.484-3.295-4.108-4.493l-0.043-0.030c-2.55-1.896-5.761-3.035-9.238-3.035-0.014 0-0.028 0-0.042 0h0.002c-0.012-0-0.026-0-0.040-0-3.477 0-6.687 1.139-9.279 3.064l0.042-0.030c-2.595 1.909-4.554 4.545-5.592 7.606l-0.032 0.11c-0.045 0.132-0.072 0.284-0.072 0.443 0 0.776 0.629 1.404 1.404 1.404 0.617 0 1.142-0.398 1.33-0.952l0.003-0.010c0.879-2.605 2.489-4.77 4.585-6.313l0.035-0.025c2.093-1.555 4.728-2.49 7.581-2.49 0.012 0 0.025 0 0.037 0h-0.002c2.763 0 5.396 0.861 7.616 2.49 1.283 0.945 2.359 2.084 3.206 3.386l0.030 0.050c-0.062-0.010-0.133-0.015-0.206-0.015-0.776 0-1.404 0.629-1.404 1.404 0 0.602 0.379 1.115 0.911 1.315l0.010 0.003 2.945 1.077 0.073 0.023 0.040 0.011c0.025 0.007 0.051 0.012 0.076 0.017l0.039 0.008c0.027 0.004 0.055 0.007 0.082 0.011l0.033 0.004c0.035 0.003 0.076 0.005 0.117 0.005 0.038 0 0.076-0.002 0.113-0.004l-0.005 0c0.009 0 0.017-0.002 0.025-0.003 0.028-0.002 0.056-0.005 0.083-0.009l0.032-0.007 0.076-0.015 0.035-0.009 0.071-0.020 0.010-0.004 0.021-0.007c0.084-0.030 0.155-0.062 0.223-0.1l-0.007 0.004 0.028-0.015c0.034-0.020 0.067-0.041 0.1-0.064l0.036-0.028c0.061-0.047 0.116-0.094 0.166-0.146l0-0c0.006-0.007 0.013-0.012 0.019-0.019 0.029-0.031 0.057-0.064 0.083-0.097l0.005-0.007c0.023-0.031 0.045-0.063 0.066-0.095l0.017-0.027c0.016-0.027 0.031-0.054 0.046-0.082l0.017-0.034c0.012-0.026 0.025-0.053 0.036-0.080l0.015-0.038 0.006-0.013 1.069-2.924c0.054-0.144 0.086-0.31 0.086-0.483 0-0.602-0.379-1.116-0.912-1.315l-0.010-0.003z"></path>
            <path fill="#e74444" style="fill: var(--color12, #e74444)" d="M0.922 24.747c0.143 0.054 0.309 0.085 0.482 0.085 0.513 0 0.962-0.276 1.207-0.687l0.004-0.006c1.099 1.792 2.484 3.296 4.108 4.494l0.043 0.030c2.55 1.895 5.761 3.034 9.237 3.034 0.014 0 0.028-0 0.043-0h-0.002c3.364 0 6.572-1.049 9.277-3.034 2.595-1.909 4.555-4.545 5.592-7.606l0.032-0.11c0.045-0.132 0.071-0.284 0.071-0.442 0-0.776-0.629-1.404-1.404-1.404-0.617 0-1.142 0.398-1.33 0.952l-0.003 0.010c-0.879 2.605-2.489 4.769-4.585 6.312l-0.035 0.025c-2.093 1.556-4.728 2.49-7.582 2.49-0.012 0-0.024-0-0.036-0h0.002c-2.763 0-5.396-0.861-7.616-2.49-1.283-0.945-2.359-2.084-3.206-3.386l-0.030-0.050c0.062 0.010 0.133 0.015 0.206 0.015 0.776 0 1.404-0.629 1.404-1.404 0-0.602-0.379-1.115-0.911-1.315l-0.010-0.003-2.945-1.077c-0.014-0.006-0.039-0.014-0.064-0.021l-0.010-0.003-0.040-0.011c-0.015-0.004-0.041-0.010-0.067-0.016l-0.010-0.002-0.039-0.007c-0.019-0.003-0.047-0.007-0.076-0.010l-0.006-0.001-0.033-0.004c-0.035-0.003-0.076-0.005-0.117-0.005-0.038 0-0.075 0.002-0.113 0.004l0.005-0c-0.009 0-0.017 0.002-0.025 0.003-0.034 0.003-0.062 0.006-0.090 0.010l0.007-0.001-0.032 0.007-0.076 0.015-0.035 0.009c-0.034 0.009-0.058 0.016-0.082 0.023l-0.001 0-0.020 0.008c-0.084 0.030-0.156 0.063-0.223 0.101l0.007-0.004-0.028 0.015c-0.040 0.023-0.072 0.044-0.104 0.067l0.004-0.003-0.036 0.028c-0.061 0.046-0.116 0.094-0.166 0.146l-0 0c-0.006 0.007-0.013 0.012-0.019 0.019-0.028 0.030-0.055 0.061-0.081 0.094l-0.002 0.003-0.005 0.007c-0.020 0.027-0.042 0.058-0.063 0.090l-0.003 0.006-0.017 0.027c-0.012 0.020-0.028 0.047-0.042 0.074l-0.004 0.008-0.017 0.035c-0.009 0.017-0.021 0.044-0.032 0.071l-0.004 0.009-0.015 0.038-0.006 0.013-1.069 2.924c-0.054 0.144-0.086 0.31-0.086 0.483 0 0.602 0.379 1.116 0.912 1.315l0.010 0.003z"></path>
        </symbol>
    </defs>
</svg>